<?xml version="1.0" encoding="UTF-8"?>
<!--Generator: Apple Native CoreSVG 232.5-->
<!DOCTYPE svg
PUBLIC "-//W3C//DTD SVG 1.1//EN"
       "http://www.w3.org/Graphics/SVG/1.1/DTD/svg11.dtd">
<svg version="1.1" xmlns="http://www.w3.org/2000/svg" xmlns:xlink="http://www.w3.org/1999/xlink" width="129.812" height="168.562">
 <g>
  <rect height="168.562" opacity="0" width="129.812" x="0" y="0"/>
  <path d="M94.125 38.625C82.0625 38.625 72.3125 45.9375 66 45.9375C59.3125 45.9375 50.5625 39.0625 40.0625 39.0625C20.1875 39.0625 0 55.5 0 86.5C0 105.875 7.4375 126.25 16.6875 139.375C24.625 150.5 31.5 159.688 41.5 159.688C51.375 159.688 55.6875 153.125 67.9375 153.125C80.4375 153.125 83.1875 159.5 94.125 159.5C104.938 159.5 112.125 149.625 118.938 139.812C126.562 128.625 129.75 117.688 129.812 117.188C129.188 116.938 108.5 108.5 108.5 84.875C108.5 64.375 124.812 55.1875 125.688 54.5C115 39.0625 98.625 38.625 94.125 38.625ZM88.4375 25.5625C93.375 19.5625 96.875 11.4375 96.875 3.1875C96.875 2.0625 96.8125 0.9375 96.5625 0C88.5625 0.3125 78.875 5.375 73.125 12.1875C68.5625 17.3125 64.375 25.5625 64.375 33.8125C64.375 35 64.5625 36.25 64.6875 36.6875C65.1875 36.75 66 36.875 66.8125 36.875C74.0625 36.875 83.125 32.0625 88.4375 25.5625Z" fill="#ffffff" fill-opacity="0.85"/>
 </g>
</svg>
