<?xml version="1.0" encoding="UTF-8"?>
<!--Generator: Apple Native CoreSVG 232.5-->
<!DOCTYPE svg
PUBLIC "-//W3C//DTD SVG 1.1//EN"
       "http://www.w3.org/Graphics/SVG/1.1/DTD/svg11.dtd">
<svg version="1.1" xmlns="http://www.w3.org/2000/svg" xmlns:xlink="http://www.w3.org/1999/xlink" width="180.375" height="180.562">
 <g>
  <rect height="180.562" opacity="0" width="180.375" x="0" y="0"/>
  <path d="M45.125 12.1875C42.5625 13.625 41.875 16.6875 43.25 19.125L58 44.5625C59.4375 47 62.3125 47.875 64.75 46.375C67.1875 44.9375 68 42 66.5625 39.5625L51.875 14.125C50.4375 11.75 47.5625 10.875 45.125 12.1875Z" fill="#ffffff" fill-opacity="0.85"/>
  <path d="M12.125 45.25C10.6875 47.75 11.5 50.6875 13.9375 52.125L39.375 66.8125C41.8125 68.1875 44.8125 67.4375 46.25 65C47.625 62.5 46.75 59.625 44.375 58.1875L18.9375 43.5C16.5 42.125 13.5 42.8125 12.125 45.25Z" fill="#ffffff" fill-opacity="0.85"/>
  <path d="M0 90.3125C0 93.1875 2.25 95.3125 5 95.3125L34.375 95.3125C37.1875 95.3125 39.375 93.1875 39.375 90.3125C39.375 87.5625 37.1875 85.375 34.375 85.375L5 85.375C2.25 85.375 0 87.5625 0 90.3125Z" fill="#ffffff" fill-opacity="0.85"/>
  <path d="M12.125 135.438C13.5 137.938 16.5 138.625 18.9375 137.25L44.375 122.562C46.75 121.125 47.6875 118.25 46.25 115.812C44.8125 113.312 41.8125 112.562 39.375 113.938L13.9375 128.625C11.5 130.062 10.6875 133 12.125 135.438Z" fill="#ffffff" fill-opacity="0.85"/>
  <path d="M45.125 168.438C47.5625 169.875 50.4375 169 51.875 166.625L66.5625 141.188C68 138.75 67.25 135.75 64.8125 134.375C62.25 133 59.4375 133.75 58 136.188L43.25 161.625C41.875 164.062 42.625 167.062 45.125 168.438Z" fill="#ffffff" fill-opacity="0.85"/>
  <path d="M90.125 180.562C93 180.562 95.125 178.312 95.125 175.562L95.125 146.188C95.125 143.375 93 141.125 90.125 141.125C87.375 141.125 85.1875 143.375 85.1875 146.188L85.1875 175.562C85.1875 178.312 87.375 180.562 90.125 180.562Z" fill="#ffffff" fill-opacity="0.85"/>
  <path d="M135.25 168.438C137.75 167.062 138.438 164.062 137.062 161.625L122.438 136.188C121 133.75 118.062 132.875 115.625 134.312C113.125 135.75 112.438 138.75 113.75 141.125L128.438 166.625C129.875 169 132.812 169.875 135.25 168.438Z" fill="#ffffff" fill-opacity="0.85"/>
  <path d="M168.25 135.438C169.688 133 168.812 130.062 166.375 128.625L140.938 113.938C138.562 112.562 135.562 113.312 134.188 115.688C132.812 118.25 133.562 121.125 136 122.562L161.438 137.25C163.875 138.625 166.875 137.938 168.25 135.438Z" fill="#ffffff" fill-opacity="0.85"/>
  <path d="M180.375 90.3125C180.375 87.5625 178.125 85.375 175.375 85.375L145.938 85.375C143.188 85.375 140.938 87.5625 140.938 90.3125C140.938 93.1875 143.188 95.3125 145.938 95.3125L175.375 95.3125C178.125 95.3125 180.375 93.1875 180.375 90.3125Z" fill="#ffffff" fill-opacity="0.85"/>
  <path d="M168.312 45.3125C166.875 42.75 163.875 42.125 161.438 43.5L136 58.125C133.562 59.5625 132.688 62.5 134.25 65.0625C135.625 67.4375 138.562 68.1875 140.938 66.8125L166.375 52.125C168.812 50.6875 169.688 47.75 168.312 45.3125Z" fill="#ffffff" fill-opacity="0.85"/>
  <path d="M135.312 12.3125C132.812 10.875 129.875 11.75 128.438 14.125L113.75 39.5625C112.375 42 113.125 45 115.625 46.4375C118.062 47.8125 120.938 47 122.375 44.5625L137.062 19.125C138.438 16.6875 137.75 13.6875 135.312 12.3125Z" fill="#ffffff" fill-opacity="0.85"/>
  <path d="M90.125 0.1875C87.375 0.1875 85.1875 2.4375 85.1875 5.1875L85.1875 34.5625C85.1875 37.375 87.375 39.5625 90.125 39.5625C93 39.5625 95.125 37.375 95.125 34.5625L95.125 5.1875C95.125 2.4375 93 0.1875 90.125 0.1875Z" fill="#ffffff" fill-opacity="0.85"/>
 </g>
</svg>
